<mxfile host="app.diagrams.net" modified="2022-04-18T07:25:54.699Z" agent="5.0 (Windows NT 10.0; Win64; x64) AppleWebKit/537.36 (KHTML, like Gecko) Chrome/100.0.4896.127 Safari/537.36" etag="e6IBwtCNFv0VSbJ_QOR_" version="17.2.4" type="github">
  <diagram id="rhsK0INR5B5wFi-OVpHr" name="Page-1">
    <mxGraphModel dx="1483" dy="1916" grid="1" gridSize="10" guides="1" tooltips="1" connect="1" arrows="1" fold="1" page="1" pageScale="1" pageWidth="850" pageHeight="1100" math="0" shadow="0">
      <root>
        <mxCell id="0" />
        <mxCell id="1" parent="0" />
        <mxCell id="j5t43CUlLCCPbClGcG_v-1" value="&lt;b&gt;Account DB&lt;/b&gt;" style="shape=cylinder3;whiteSpace=wrap;html=1;boundedLbl=1;backgroundOutline=1;size=15;fillColor=#fff2cc;strokeColor=#d6b656;" vertex="1" parent="1">
          <mxGeometry x="255" y="280" width="90" height="70" as="geometry" />
        </mxCell>
        <mxCell id="j5t43CUlLCCPbClGcG_v-19" style="edgeStyle=none;rounded=0;orthogonalLoop=1;jettySize=auto;html=1;endArrow=none;endFill=0;" edge="1" parent="1" source="j5t43CUlLCCPbClGcG_v-2" target="j5t43CUlLCCPbClGcG_v-1">
          <mxGeometry relative="1" as="geometry" />
        </mxCell>
        <mxCell id="j5t43CUlLCCPbClGcG_v-2" value="&lt;b&gt;Account&lt;br&gt;Service&lt;/b&gt;" style="rounded=1;whiteSpace=wrap;html=1;fillColor=#dae8fc;strokeColor=#6c8ebf;" vertex="1" parent="1">
          <mxGeometry x="240" y="160" width="120" height="60" as="geometry" />
        </mxCell>
        <mxCell id="j5t43CUlLCCPbClGcG_v-3" value="&lt;b&gt;Inventory&amp;nbsp;&lt;/b&gt;&lt;b&gt;DB&lt;/b&gt;" style="shape=cylinder3;whiteSpace=wrap;html=1;boundedLbl=1;backgroundOutline=1;size=15;fillColor=#fff2cc;strokeColor=#d6b656;" vertex="1" parent="1">
          <mxGeometry x="455" y="280" width="90" height="70" as="geometry" />
        </mxCell>
        <mxCell id="j5t43CUlLCCPbClGcG_v-20" style="edgeStyle=none;rounded=0;orthogonalLoop=1;jettySize=auto;html=1;endArrow=none;endFill=0;" edge="1" parent="1" source="j5t43CUlLCCPbClGcG_v-4" target="j5t43CUlLCCPbClGcG_v-3">
          <mxGeometry relative="1" as="geometry" />
        </mxCell>
        <mxCell id="j5t43CUlLCCPbClGcG_v-4" value="&lt;b&gt;Inventory&lt;br&gt;Service&lt;/b&gt;" style="rounded=1;whiteSpace=wrap;html=1;fillColor=#dae8fc;strokeColor=#6c8ebf;" vertex="1" parent="1">
          <mxGeometry x="440" y="160" width="120" height="60" as="geometry" />
        </mxCell>
        <mxCell id="j5t43CUlLCCPbClGcG_v-5" value="&lt;b&gt;Order&lt;/b&gt;&lt;b&gt;&amp;nbsp;DB&lt;/b&gt;" style="shape=cylinder3;whiteSpace=wrap;html=1;boundedLbl=1;backgroundOutline=1;size=15;fillColor=#fff2cc;strokeColor=#d6b656;" vertex="1" parent="1">
          <mxGeometry x="760" y="280" width="90" height="70" as="geometry" />
        </mxCell>
        <mxCell id="j5t43CUlLCCPbClGcG_v-33" style="edgeStyle=none;rounded=0;orthogonalLoop=1;jettySize=auto;html=1;entryX=0.145;entryY=0;entryDx=0;entryDy=4.35;entryPerimeter=0;endArrow=none;endFill=0;" edge="1" parent="1" source="j5t43CUlLCCPbClGcG_v-6" target="j5t43CUlLCCPbClGcG_v-5">
          <mxGeometry relative="1" as="geometry" />
        </mxCell>
        <mxCell id="j5t43CUlLCCPbClGcG_v-6" value="&lt;b&gt;Order&lt;br&gt;Service&lt;/b&gt;" style="rounded=1;whiteSpace=wrap;html=1;fillColor=#dae8fc;strokeColor=#6c8ebf;" vertex="1" parent="1">
          <mxGeometry x="640" y="160" width="120" height="60" as="geometry" />
        </mxCell>
        <mxCell id="j5t43CUlLCCPbClGcG_v-32" style="edgeStyle=none;rounded=0;orthogonalLoop=1;jettySize=auto;html=1;entryX=0.855;entryY=0;entryDx=0;entryDy=4.35;entryPerimeter=0;endArrow=none;endFill=0;" edge="1" parent="1" source="j5t43CUlLCCPbClGcG_v-8" target="j5t43CUlLCCPbClGcG_v-5">
          <mxGeometry relative="1" as="geometry" />
        </mxCell>
        <mxCell id="j5t43CUlLCCPbClGcG_v-8" value="&lt;b&gt;Shipping&lt;br&gt;Service&lt;/b&gt;" style="rounded=1;whiteSpace=wrap;html=1;fillColor=#dae8fc;strokeColor=#6c8ebf;" vertex="1" parent="1">
          <mxGeometry x="840" y="160" width="120" height="60" as="geometry" />
        </mxCell>
        <mxCell id="j5t43CUlLCCPbClGcG_v-14" style="edgeStyle=none;rounded=0;orthogonalLoop=1;jettySize=auto;html=1;entryX=0.5;entryY=0;entryDx=0;entryDy=0;endArrow=none;endFill=0;" edge="1" parent="1" source="j5t43CUlLCCPbClGcG_v-10" target="j5t43CUlLCCPbClGcG_v-4">
          <mxGeometry relative="1" as="geometry" />
        </mxCell>
        <mxCell id="j5t43CUlLCCPbClGcG_v-15" style="edgeStyle=none;rounded=0;orthogonalLoop=1;jettySize=auto;html=1;endArrow=none;endFill=0;" edge="1" parent="1" source="j5t43CUlLCCPbClGcG_v-10" target="j5t43CUlLCCPbClGcG_v-6">
          <mxGeometry relative="1" as="geometry" />
        </mxCell>
        <mxCell id="j5t43CUlLCCPbClGcG_v-16" style="edgeStyle=none;rounded=0;orthogonalLoop=1;jettySize=auto;html=1;entryX=0.5;entryY=0;entryDx=0;entryDy=0;endArrow=none;endFill=0;" edge="1" parent="1" source="j5t43CUlLCCPbClGcG_v-10" target="j5t43CUlLCCPbClGcG_v-8">
          <mxGeometry relative="1" as="geometry" />
        </mxCell>
        <mxCell id="j5t43CUlLCCPbClGcG_v-17" style="edgeStyle=none;rounded=0;orthogonalLoop=1;jettySize=auto;html=1;entryX=0.5;entryY=0;entryDx=0;entryDy=0;endArrow=none;endFill=0;" edge="1" parent="1" source="j5t43CUlLCCPbClGcG_v-10" target="j5t43CUlLCCPbClGcG_v-12">
          <mxGeometry relative="1" as="geometry" />
        </mxCell>
        <mxCell id="j5t43CUlLCCPbClGcG_v-18" style="edgeStyle=none;rounded=0;orthogonalLoop=1;jettySize=auto;html=1;entryX=0.5;entryY=0;entryDx=0;entryDy=0;endArrow=none;endFill=0;" edge="1" parent="1" source="j5t43CUlLCCPbClGcG_v-10" target="j5t43CUlLCCPbClGcG_v-2">
          <mxGeometry relative="1" as="geometry" />
        </mxCell>
        <mxCell id="j5t43CUlLCCPbClGcG_v-10" value="&lt;b&gt;API&lt;br&gt;Gateway&lt;/b&gt;" style="rounded=0;whiteSpace=wrap;html=1;fillColor=#ffe6cc;strokeColor=#d79b00;" vertex="1" parent="1">
          <mxGeometry x="640" width="120" height="60" as="geometry" />
        </mxCell>
        <mxCell id="j5t43CUlLCCPbClGcG_v-11" value="&lt;b&gt;Refund&lt;/b&gt;&lt;b&gt;&amp;nbsp;DB&lt;/b&gt;" style="shape=cylinder3;whiteSpace=wrap;html=1;boundedLbl=1;backgroundOutline=1;size=15;fillColor=#fff2cc;strokeColor=#d6b656;" vertex="1" parent="1">
          <mxGeometry x="1055" y="280" width="90" height="70" as="geometry" />
        </mxCell>
        <mxCell id="j5t43CUlLCCPbClGcG_v-23" style="edgeStyle=none;rounded=0;orthogonalLoop=1;jettySize=auto;html=1;entryX=0.5;entryY=0;entryDx=0;entryDy=0;entryPerimeter=0;endArrow=none;endFill=0;" edge="1" parent="1" source="j5t43CUlLCCPbClGcG_v-12" target="j5t43CUlLCCPbClGcG_v-11">
          <mxGeometry relative="1" as="geometry" />
        </mxCell>
        <mxCell id="j5t43CUlLCCPbClGcG_v-12" value="&lt;b&gt;Refund&lt;br&gt;Service&lt;/b&gt;" style="rounded=1;whiteSpace=wrap;html=1;fillColor=#dae8fc;strokeColor=#6c8ebf;" vertex="1" parent="1">
          <mxGeometry x="1040" y="160" width="120" height="60" as="geometry" />
        </mxCell>
        <mxCell id="j5t43CUlLCCPbClGcG_v-31" style="edgeStyle=none;rounded=0;orthogonalLoop=1;jettySize=auto;html=1;endArrow=none;endFill=0;" edge="1" parent="1" source="j5t43CUlLCCPbClGcG_v-29" target="j5t43CUlLCCPbClGcG_v-10">
          <mxGeometry relative="1" as="geometry" />
        </mxCell>
        <mxCell id="j5t43CUlLCCPbClGcG_v-29" value="" style="ellipse;whiteSpace=wrap;html=1;aspect=fixed;fillColor=#f5f5f5;fontColor=#333333;strokeColor=#666666;" vertex="1" parent="1">
          <mxGeometry x="635.5" y="-210" width="129" height="129" as="geometry" />
        </mxCell>
        <mxCell id="j5t43CUlLCCPbClGcG_v-28" value="" style="sketch=0;outlineConnect=0;fontColor=#232F3E;gradientColor=none;fillColor=#232F3D;strokeColor=none;dashed=0;verticalLabelPosition=bottom;verticalAlign=top;align=center;html=1;fontSize=12;fontStyle=0;aspect=fixed;pointerEvents=1;shape=mxgraph.aws4.mobile_client;" vertex="1" parent="1">
          <mxGeometry x="679.5" y="-184.5" width="41" height="78" as="geometry" />
        </mxCell>
      </root>
    </mxGraphModel>
  </diagram>
</mxfile>
